<svg width="1920" height="1080" viewBox="0 0 1920 1080" xmlns="http://www.w3.org/2000/svg"><path d="M467.25933017529104,47.99999999999989C466.9259968419578,135.7355484293443,728.5092441712865,278.2917279857872,717.1590932319507,333.0524823068501C705.8089422926149,387.813236627913,479.72448244773284,305.02454177395816,399.15842453927615,376.56452592637737C318.59236663081947,448.1045100787966,305.85107465088646,691.2379046213939,233.76274578121058,762.2923872213652C161.6744169115347,833.3468698213364,33.155511094873134,828.9547156845127,-33.37154867877901,802.891421526205C-99.89860845243115,776.8281273678973,-86.10031363150375,692.3996654487146,-165.39961286070226,605.912622271519C-244.69891208990077,519.4255790943234,-430.880868994359,365.15590368183376,-509.16734405397006,283.96916246303175C-587.4538191135812,202.78242124422974,-607.7366899029125,177.48755770111643,-635.1184632183688,118.79217495870682C-662.500236533825,60.096792216297224,-692.4748608559609,23.235385038251096,-673.4579839467079,-68.20313399142583C-654.441107037455,-159.64165302110274,-573.1253857511863,-356.8700906258393,-521.0172017628515,-429.83893921935476C-468.9090177745167,-502.80778781287023,-446.4605720753551,-467.164894986093,-360.80888001669905,-506.0162255525187C-275.157187958043,-544.8675561189444,-91.31481352834507,-633.067562339768,-7.107049410915245,-662.9469226179091C77.1007147065146,-692.8262828960502,80.98100042665337,-710.8904378063424,144.43770468787994,-685.2923872213653C207.89440894910652,-659.6943366363881,277.8462780657659,-591.3472156000707,373.6331761564443,-509.3586191080459C469.42007424712267,-427.37002261602106,703.5547342288093,-286.25391145389057,719.1590932319504,-193.36080826921625C734.7634522350914,-100.46770508454195,467.5926635086243,-39.73554842934451,467.25933017529104,47.99999999999989C466.9259968419578,135.7355484293443,728.5092441712865,278.2917279857872,717.1590932319507,333.0524823068501" fill="#e64555"/></svg>