<svg width="1080" height="1080" viewBox="0 0 1080 1080" xmlns="http://www.w3.org/2000/svg"><path d="M496.77657932574465,49.99999999999984C505.4432459924114,145.25186830552434,727.0466891194704,175.10060573426483,718.0920192399075,251.96883080032006C709.1373493603445,328.8370558663753,547.6575334844172,468.57235024075817,443.04856004836694,511.2093503963312C338.4395866123167,553.8463505519043,205.93854951198432,469.2820264641366,90.43817862360622,507.79083173375824C-25.062192264771866,546.2996370033799,-186.68225424109983,735.9359805596798,-249.95366528190158,742.2621820140612C-313.22507632270333,748.5883834684425,-257.68153963174547,640.1177396989516,-289.1902876212043,545.7480404600466C-320.6990356106631,451.3783412211415,-366.17014064393186,289.05145048256725,-439.00615321865433,176.0439865806309C-511.8421657933768,63.036522678694524,-726.330597734221,-21.732412908033766,-726.2063630695391,-132.29674295157162C-726.0821284048571,-242.86107299510945,-523.8028615285021,-393.6810871701813,-438.26074523056263,-487.3419936805962C-352.7186289326231,-581.0029001910111,-303.4603087209096,-703.8829524094715,-212.95366528190192,-694.2621820140611C-122.44702184289424,-684.6414116186506,-3.7212554848946837,-446.9547517404364,104.77911540348342,-429.6173713081333C213.27948629186153,-412.27999087583015,344.49640940896273,-608.5837314661269,438.0485600483667,-590.2378994202425C531.6007106877706,-571.892067374358,656.3040160270108,-426.24869560286726,666.0920192399071,-319.5423790328269C675.8800224528035,-212.83606246278651,488.1099126590779,-45.25186830552466,496.77657932574465,49.99999999999984C505.4432459924114,145.25186830552434,727.0466891194704,175.10060573426483,718.0920192399075,251.96883080032006" fill="#df6688"/></svg>