<svg width="1920" height="240" viewBox="0 0 1920 240" xmlns="http://www.w3.org/2000/svg"><path d="M766,255.99999999999983C719.3220465191966,347.3837719438115,447.450046552273,459.65868793216464,410.0913723471303,547.0524823068502C372.73269814198756,634.4462766815357,568.9027258634635,710.9894487623604,541.8479547691436,780.362766248113C514.7931836748237,849.7360837338655,347.30346281785785,927.3709446750165,247.76274578121058,963.2923872213652C148.22202874456332,999.2138297677138,45.23077684612842,1044.7998642070743,-55.396347450739995,995.891421526205C-156.02347174760843,946.9829788453358,-266.4389336115881,714.850478187291,-355.99999999999983,669.8417311361493C-445.5610663884116,624.8329840850076,-533.3276290228181,776.6789831909844,-592.7627457812105,725.8389392193549C-652.1978625396029,674.9988952477254,-741.1867806783657,458.38662795424403,-712.6107005503542,364.80146730637256C-684.0346204223426,271.2163066585011,-449.8220560661731,237.6711267291107,-421.3062650131412,164.32797533212613C-392.79047396010935,90.98482393514156,-553.164501443456,16.21706361954095,-541.515954232163,-75.25744107553487C-529.8674070208701,-166.7319457706107,-434.6932220300101,-335.069712234078,-351.41498174538367,-384.5190528383288C-268.13674146075726,-433.96839344257955,-139.0428004455036,-361.8245956372002,-41.84651252440459,-371.95348470103966C55.34977539669441,-382.0823737648791,163.0392090184971,-454.89153148686427,231.7627457812104,-445.2923872213653C300.4862825439237,-435.6932429558663,294.0953168100853,-388.3656587522701,370.4947080518753,-314.3586191080459C446.8940992936653,-240.35157946382168,624.2415445739296,-96.30991920736086,690.1590932319504,-1.2501493560199037C756.0766418899711,93.80962049532106,812.6779534808034,164.61622805618816,766,255.99999999999983C719.3220465191966,347.3837719438115,447.450046552273,459.65868793216464,410.0913723471303,547.0524823068502" fill="#e64555"/></svg>