<svg width="1080" height="1080" viewBox="0 0 1080 1080" xmlns="http://www.w3.org/2000/svg"><path d="M802,-1.8369701987210297e-13C805.5,74.5565203905267,819.8903272199823,78.7268701849696,741.1590932319507,174.2866400363106C662.4278592439191,269.8464098876516,408.845320646934,480.83889817639255,329.61259607181063,573.3586191080457C250.37987149668726,665.8783400396989,322.8687375004024,712.6472711530994,265.7627457812106,729.4049656262295C208.65675406201876,746.1626600993595,56.313144905078694,709.1613688408028,-13.023354243340286,673.9047859468262C-82.35985339175926,638.6482030528497,-78.40272537773593,570.9912196530698,-150.25624910930333,517.8654682623702C-222.10977284087073,464.7397168716706,-350.4187547259029,411.6388942941371,-444.1444966327447,355.1502776026287C-537.8702385395865,298.6616609111203,-670.1996665640859,261.7811090659778,-712.6107005503542,178.9337681133198C-755.0217345366225,96.08642716066178,-743.0667241680671,-47.80498355787354,-698.6107005503543,-141.9337681133193C-654.1546769326415,-236.06255266876508,-514.299386502211,-321.32985259832685,-445.8745588440772,-385.83893921935476C-377.44973118594356,-450.34802584038266,-353.64143650044167,-481.00254601907375,-288.06173460155225,-528.9882878394868C-222.48203270266282,-576.9740296598999,-146.20042751453445,-695.7308795080158,-52.39634745074068,-673.7533901418332C41.4077326130531,-651.7759007756505,194.47066282329644,-459.690891324022,274.7627457812104,-397.1233516423906C355.0548287391244,-334.55581196075923,355.1234257216198,-319.0266302746348,429.3561502967431,-298.3481520520448C503.58887487186644,-277.6696738294548,658.0517849480742,-322.7771743155248,720.1590932319504,-273.0524823068507C782.2664015158265,-223.3277902981766,798.5,-74.55652039052707,802,-1.8369701987210297e-13C805.5,74.5565203905267,819.8903272199823,78.7268701849696,741.1590932319507,174.2866400363106" fill="#e64555"/></svg>