<svg width="720" height="720" viewBox="0 0 720 720" xmlns="http://www.w3.org/2000/svg"><path d="M787,55.99999999999989C837.7306208504915,146.62353719527349,752.5311814728516,220.05510549520878,698.1590932319507,281.7198938273782C643.7870049910498,343.3846821595476,540.4173222997852,348.7266477606852,460.7674705545944,425.98872999301636C381.1176188094036,503.25081222534754,307.12061909502825,691.1419386325003,220.25998276080585,745.2923872213652C133.39934642658346,799.44283581023,23.314386457490684,785.104102625123,-60.396347450739995,750.891421526205C-144.10708135897067,716.678740427287,-195.71413110353797,615.0224440914059,-282.0044206885782,540.0163006278574C-368.2947102736184,465.0101571643089,-523.9367210033123,370.2312618460504,-578.1380849609814,300.85456074491395C-632.3394489186504,231.47785964377746,-587.3005018363639,195.22081549741068,-607.2126044345927,123.75609402103845C-627.1247070328214,52.29137254466623,-713.3293185172873,-37.50126257325378,-697.6107005503543,-127.9337681133193C-681.8920825834213,-218.36627365338484,-575.8360133913868,-336.5069928037992,-512.9008966329945,-418.83893921935476C-449.9657798746022,-501.1708856349103,-392.9174248637093,-610.2428515420194,-320.00000000000034,-621.9254466066526C-247.08257513629138,-633.6080416712858,-159.46475874950426,-479.7066861713688,-75.39634745074068,-488.93450960715427C8.672063848022901,-498.16233304293974,84.20308408926715,-667.3883689712167,184.41046779258116,-677.2923872213653C284.61785149589514,-687.1964054715139,490.95380471307334,-617.5704620875629,525.8479547691434,-548.3586191080459C560.7421048252135,-479.1467761285289,350.250027257192,-362.74776586227097,393.77536812900144,-262.02132934426334C437.30070900081085,-161.2948928262557,736.2693791495085,-34.62353719527369,787,55.99999999999989C837.7306208504915,146.62353719527349,752.5311814728516,220.05510549520878,698.1590932319507,281.7198938273782" fill="#e64555"/></svg>